<svg width="2062" height="1074" viewBox="0 0 2062 1074" fill="none" xmlns="http://www.w3.org/2000/svg">
<path d="M1069.84 696.526V705.682H1046.08V772.063H1035.51V705.682H1011.74V696.526H1069.84ZM1090.49 772.063H1080.35V715.383H1090.49V772.063ZM1085.37 705.137C1083.55 705.137 1081.99 704.556 1080.68 703.393C1079.44 702.158 1078.83 700.523 1078.83 698.488C1078.83 696.453 1079.44 694.855 1080.68 693.692C1081.99 692.457 1083.55 691.839 1085.37 691.839C1087.18 691.839 1088.71 692.457 1089.94 693.692C1091.25 694.855 1091.91 696.453 1091.91 698.488C1091.91 700.523 1091.25 702.158 1089.94 703.393C1088.71 704.556 1087.18 705.137 1085.37 705.137ZM1107.92 717.018C1110.25 716.437 1113.3 715.819 1117.08 715.165C1120.93 714.511 1125.36 714.184 1130.38 714.184C1134.01 714.184 1137.06 714.693 1139.53 715.71C1142 716.655 1144.07 718.072 1145.74 719.961C1146.25 719.598 1147.05 719.089 1148.14 718.435C1149.23 717.781 1150.58 717.163 1152.18 716.582C1153.77 715.928 1155.55 715.383 1157.52 714.947C1159.48 714.438 1161.59 714.184 1163.84 714.184C1168.2 714.184 1171.76 714.838 1174.52 716.146C1177.28 717.381 1179.43 719.162 1180.95 721.487C1182.55 723.812 1183.6 726.574 1184.11 729.771C1184.69 732.968 1184.98 736.456 1184.98 740.235V772.063H1174.85V742.415C1174.85 739.072 1174.67 736.202 1174.3 733.804C1174.01 731.406 1173.39 729.408 1172.45 727.809C1171.58 726.21 1170.34 725.048 1168.74 724.321C1167.22 723.522 1165.22 723.122 1162.75 723.122C1159.33 723.122 1156.5 723.594 1154.25 724.539C1152.07 725.411 1150.58 726.21 1149.78 726.937C1150.36 728.826 1150.79 730.897 1151.09 733.15C1151.38 735.403 1151.52 737.764 1151.52 740.235V772.063H1141.38V742.415C1141.38 739.072 1141.2 736.202 1140.84 733.804C1140.48 731.406 1139.82 729.408 1138.88 727.809C1138.01 726.21 1136.77 725.048 1135.17 724.321C1133.65 723.522 1131.68 723.122 1129.29 723.122C1128.27 723.122 1127.18 723.158 1126.02 723.231C1124.85 723.304 1123.73 723.413 1122.64 723.558C1121.62 723.631 1120.67 723.74 1119.8 723.885C1118.93 724.03 1118.35 724.139 1118.06 724.212V772.063H1107.92V717.018ZM1198.64 743.832C1198.64 738.818 1199.37 734.458 1200.82 730.752C1202.28 726.973 1204.2 723.849 1206.6 721.378C1209 718.907 1211.76 717.054 1214.89 715.819C1218.01 714.584 1221.21 713.966 1224.48 713.966C1232.11 713.966 1237.96 716.364 1242.03 721.16C1246.1 725.883 1248.13 733.114 1248.13 742.851C1248.13 743.287 1248.13 743.868 1248.13 744.595C1248.13 745.249 1248.09 745.867 1248.02 746.448H1209.22C1209.65 752.334 1211.36 756.803 1214.34 759.855C1217.32 762.907 1221.97 764.433 1228.29 764.433C1231.85 764.433 1234.83 764.142 1237.23 763.561C1239.7 762.907 1241.55 762.289 1242.79 761.708L1244.21 770.21C1242.97 770.864 1240.79 771.554 1237.67 772.281C1234.61 773.008 1231.13 773.371 1227.2 773.371C1222.26 773.371 1217.97 772.644 1214.34 771.191C1210.78 769.665 1207.84 767.594 1205.51 764.978C1203.19 762.362 1201.44 759.274 1200.28 755.713C1199.19 752.08 1198.64 748.119 1198.64 743.832ZM1237.56 738.273C1237.63 733.695 1236.47 729.953 1234.07 727.046C1231.74 724.067 1228.51 722.577 1224.37 722.577C1222.04 722.577 1219.97 723.049 1218.16 723.994C1216.41 724.866 1214.92 726.029 1213.69 727.482C1212.45 728.935 1211.47 730.607 1210.74 732.496C1210.09 734.385 1209.65 736.311 1209.44 738.273H1237.56ZM1339.04 696.526V705.682H1315.28V772.063H1304.71V705.682H1280.94V696.526H1339.04ZM1366.12 714.184C1366.99 714.184 1367.97 714.257 1369.06 714.402C1370.22 714.475 1371.35 714.62 1372.44 714.838C1373.53 714.983 1374.51 715.165 1375.38 715.383C1376.33 715.528 1377.02 715.674 1377.45 715.819L1375.71 724.648C1374.91 724.357 1373.56 724.03 1371.67 723.667C1369.86 723.231 1367.5 723.013 1364.59 723.013C1362.7 723.013 1360.81 723.231 1358.92 723.667C1357.11 724.03 1355.91 724.285 1355.32 724.43V772.063H1345.19V717.781C1347.59 716.909 1350.57 716.11 1354.13 715.383C1357.69 714.584 1361.68 714.184 1366.12 714.184ZM1406.42 764.76C1408.82 764.76 1410.92 764.724 1412.74 764.651C1414.63 764.506 1416.19 764.288 1417.43 763.997V747.102C1416.7 746.739 1415.5 746.448 1413.83 746.23C1412.23 745.939 1410.27 745.794 1407.94 745.794C1406.42 745.794 1404.78 745.903 1403.04 746.121C1401.37 746.339 1399.81 746.811 1398.35 747.538C1396.97 748.192 1395.81 749.137 1394.86 750.372C1393.92 751.535 1393.45 753.097 1393.45 755.059C1393.45 758.692 1394.61 761.236 1396.93 762.689C1399.26 764.07 1402.42 764.76 1406.42 764.76ZM1405.55 713.966C1409.62 713.966 1413.03 714.511 1415.79 715.601C1418.63 716.618 1420.88 718.108 1422.55 720.07C1424.29 721.959 1425.53 724.248 1426.26 726.937C1426.98 729.553 1427.35 732.46 1427.35 735.657V771.082C1426.47 771.227 1425.24 771.445 1423.64 771.736C1422.11 771.954 1420.37 772.172 1418.41 772.39C1416.45 772.608 1414.3 772.79 1411.98 772.935C1409.72 773.153 1407.47 773.262 1405.22 773.262C1402.02 773.262 1399.08 772.935 1396.39 772.281C1393.7 771.627 1391.38 770.61 1389.41 769.229C1387.45 767.776 1385.93 765.886 1384.84 763.561C1383.75 761.236 1383.2 758.438 1383.2 755.168C1383.2 752.043 1383.82 749.355 1385.05 747.102C1386.36 744.849 1388.11 743.033 1390.29 741.652C1392.47 740.271 1395.01 739.254 1397.92 738.6C1400.82 737.946 1403.87 737.619 1407.07 737.619C1408.09 737.619 1409.14 737.692 1410.23 737.837C1411.32 737.91 1412.34 738.055 1413.28 738.273C1414.3 738.418 1415.17 738.564 1415.9 738.709C1416.63 738.854 1417.14 738.963 1417.43 739.036V736.202C1417.43 734.531 1417.25 732.896 1416.88 731.297C1416.52 729.626 1415.86 728.172 1414.92 726.937C1413.98 725.629 1412.67 724.612 1411 723.885C1409.4 723.086 1407.29 722.686 1404.67 722.686C1401.33 722.686 1398.39 722.94 1395.84 723.449C1393.37 723.885 1391.52 724.357 1390.29 724.866L1389.09 716.473C1390.39 715.892 1392.57 715.347 1395.63 714.838C1398.68 714.257 1401.99 713.966 1405.55 713.966ZM1468.82 773.371C1464.24 773.371 1460.2 772.644 1456.72 771.191C1453.3 769.738 1450.39 767.703 1448 765.087C1445.67 762.471 1443.93 759.383 1442.76 755.822C1441.6 752.189 1441.02 748.192 1441.02 743.832C1441.02 739.472 1441.64 735.475 1442.87 731.842C1444.18 728.209 1446 725.084 1448.32 722.468C1450.65 719.779 1453.48 717.708 1456.83 716.255C1460.24 714.729 1464.02 713.966 1468.16 713.966C1470.71 713.966 1473.25 714.184 1475.79 714.62C1478.34 715.056 1480.77 715.746 1483.09 716.691L1480.81 725.302C1479.28 724.575 1477.5 723.994 1475.46 723.558C1473.5 723.122 1471.4 722.904 1469.14 722.904C1463.47 722.904 1459.11 724.684 1456.06 728.245C1453.08 731.806 1451.59 737.001 1451.59 743.832C1451.59 746.884 1451.92 749.682 1452.57 752.225C1453.3 754.768 1454.39 756.948 1455.84 758.765C1457.37 760.582 1459.3 761.999 1461.62 763.016C1463.95 763.961 1466.78 764.433 1470.12 764.433C1472.81 764.433 1475.25 764.179 1477.43 763.67C1479.61 763.161 1481.31 762.616 1482.55 762.035L1483.97 770.537C1483.39 770.9 1482.55 771.264 1481.46 771.627C1480.37 771.918 1479.13 772.172 1477.75 772.39C1476.37 772.681 1474.88 772.899 1473.28 773.044C1471.76 773.262 1470.27 773.371 1468.82 773.371ZM1515.34 740.889C1517.52 742.56 1519.81 744.631 1522.21 747.102C1524.68 749.573 1527.08 752.261 1529.4 755.168C1531.8 758.002 1534.05 760.909 1536.16 763.888C1538.27 766.795 1540.05 769.52 1541.5 772.063H1529.62C1528.09 769.52 1526.31 766.94 1524.28 764.324C1522.32 761.635 1520.25 759.092 1518.07 756.694C1515.89 754.223 1513.67 751.971 1511.42 749.936C1509.17 747.901 1507.02 746.194 1504.99 744.813V772.063H1494.85V689.223L1504.99 687.479V739.145C1506.73 737.401 1508.66 735.475 1510.76 733.368C1512.87 731.261 1514.94 729.117 1516.98 726.937C1519.01 724.757 1520.94 722.686 1522.75 720.724C1524.57 718.689 1526.13 716.909 1527.44 715.383H1539.32C1537.65 717.2 1535.83 719.198 1533.87 721.378C1531.91 723.558 1529.88 725.774 1527.77 728.027C1525.66 730.207 1523.52 732.423 1521.34 734.676C1519.23 736.856 1517.23 738.927 1515.34 740.889ZM1561.94 772.063H1551.8V715.383H1561.94V772.063ZM1556.81 705.137C1555 705.137 1553.43 704.556 1552.13 703.393C1550.89 702.158 1550.27 700.523 1550.27 698.488C1550.27 696.453 1550.89 694.855 1552.13 693.692C1553.43 692.457 1555 691.839 1556.81 691.839C1558.63 691.839 1560.15 692.457 1561.39 693.692C1562.7 694.855 1563.35 696.453 1563.35 698.488C1563.35 700.523 1562.7 702.158 1561.39 703.393C1560.15 704.556 1558.63 705.137 1556.81 705.137ZM1579.37 717.018C1581.69 716.437 1584.78 715.819 1588.63 715.165C1592.48 714.511 1596.92 714.184 1601.93 714.184C1606.44 714.184 1610.18 714.838 1613.16 716.146C1616.14 717.381 1618.5 719.162 1620.24 721.487C1622.06 723.74 1623.33 726.465 1624.06 729.662C1624.78 732.859 1625.15 736.384 1625.15 740.235V772.063H1615.01V742.415C1615.01 738.927 1614.76 735.948 1614.25 733.477C1613.81 731.006 1613.05 729.008 1611.96 727.482C1610.87 725.956 1609.42 724.866 1607.6 724.212C1605.78 723.485 1603.53 723.122 1600.84 723.122C1599.75 723.122 1598.62 723.158 1597.46 723.231C1596.3 723.304 1595.17 723.413 1594.08 723.558C1593.07 723.631 1592.12 723.74 1591.25 723.885C1590.45 724.03 1589.87 724.139 1589.5 724.212V772.063H1579.37V717.018ZM1677.49 766.395C1676.62 766.976 1674.91 767.739 1672.37 768.684C1669.9 769.556 1666.99 769.992 1663.65 769.992C1660.23 769.992 1657 769.447 1653.95 768.357C1650.97 767.267 1648.35 765.596 1646.1 763.343C1643.85 761.018 1642.07 758.147 1640.76 754.732C1639.45 751.317 1638.8 747.247 1638.8 742.524C1638.8 738.382 1639.41 734.603 1640.65 731.188C1641.88 727.7 1643.66 724.721 1645.99 722.25C1648.39 719.707 1651.29 717.745 1654.71 716.364C1658.13 714.911 1661.98 714.184 1666.26 714.184C1670.99 714.184 1675.09 714.547 1678.58 715.274C1682.14 715.928 1685.12 716.546 1687.52 717.127V767.703C1687.52 776.423 1685.27 782.745 1680.76 786.669C1676.26 790.593 1669.43 792.555 1660.27 792.555C1656.71 792.555 1653.33 792.264 1650.13 791.683C1647.01 791.102 1644.28 790.411 1641.96 789.612L1643.81 780.783C1645.84 781.582 1648.32 782.273 1651.22 782.854C1654.2 783.508 1657.29 783.835 1660.49 783.835C1666.52 783.835 1670.84 782.636 1673.46 780.238C1676.15 777.84 1677.49 774.025 1677.49 768.793V766.395ZM1677.38 724.321C1676.36 724.03 1674.98 723.776 1673.24 723.558C1671.57 723.267 1669.28 723.122 1666.37 723.122C1660.92 723.122 1656.71 724.902 1653.73 728.463C1650.82 732.024 1649.37 736.747 1649.37 742.633C1649.37 745.903 1649.77 748.701 1650.57 751.026C1651.44 753.351 1652.57 755.277 1653.95 756.803C1655.4 758.329 1657.04 759.455 1658.85 760.182C1660.74 760.909 1662.67 761.272 1664.63 761.272C1667.32 761.272 1669.79 760.909 1672.04 760.182C1674.29 759.383 1676.07 758.474 1677.38 757.457V724.321Z" fill="#030140"/>
<path d="M1100.58 616.62C1081.94 616.329 1066.87 614.29 1055.3 610.577C1043.72 606.864 1034.54 601.621 1027.77 594.923C1021.07 588.224 1016.49 580.069 1014.01 570.459C1011.61 560.848 1010.37 550.072 1010.37 538.058V289.339L1074.37 279V525.098C1074.37 530.85 1074.81 535.947 1075.68 540.534C1076.56 545.121 1078.16 548.98 1080.63 552.11C1083.04 555.241 1086.6 557.862 1091.19 559.828C1095.78 561.867 1101.89 563.105 1109.68 563.687L1100.58 616.62Z" fill="#030140"/>
<path d="M1216.06 321.157C1216.06 332.879 1212.27 342.126 1204.7 348.825C1197.13 355.523 1188.17 358.945 1177.83 358.945C1167.5 358.945 1158.54 355.596 1150.97 348.825C1143.4 342.126 1139.61 332.879 1139.61 321.157C1139.61 309.435 1143.4 300.188 1150.97 293.489C1158.54 286.791 1167.5 283.369 1177.83 283.369C1188.17 283.369 1197.06 286.718 1204.7 293.489C1212.27 300.188 1216.06 309.435 1216.06 321.157ZM1210.09 612.324H1146.09V386.395H1210.09V612.324Z" fill="#030140"/>
<path d="M1334.16 467.578C1340.42 460.734 1346.97 453.598 1353.67 446.245C1360.37 438.818 1366.92 431.537 1373.18 424.256C1379.45 416.975 1385.42 410.131 1391.02 403.578C1396.63 397.025 1401.36 391.346 1405.37 386.468H1481.45C1466.31 403.869 1451.45 420.543 1436.97 436.415C1422.48 452.288 1406.68 468.597 1389.49 485.489C1398.08 493.207 1406.97 502.454 1416.14 513.23C1425.32 524.006 1434.2 535.073 1442.79 546.577C1451.38 558.081 1459.25 569.512 1466.38 581.016C1473.52 592.52 1479.56 602.932 1484.44 612.397H1410.83C1406.24 604.97 1401.07 596.67 1395.17 587.642C1389.35 578.613 1383.09 569.585 1376.53 560.556C1369.98 551.528 1363.06 542.864 1355.78 534.49C1348.5 526.19 1341.29 519.127 1334.16 513.375V612.397H1270.16V289.339L1334.16 279V467.578V467.578Z" fill="#030140"/>
<path d="M1589.21 612.324C1574.58 583.71 1559.65 550.217 1544.58 511.847C1529.51 473.476 1515.16 431.683 1501.69 386.468H1569.55C1572.39 397.608 1575.81 409.767 1579.67 422.727C1583.53 435.76 1587.61 448.939 1591.76 462.263C1595.91 475.587 1600.06 488.547 1604.28 501.143C1608.43 513.74 1612.58 525.171 1616.59 535.51C1620.3 525.171 1624.38 513.74 1628.67 501.143C1632.97 488.547 1637.19 475.587 1641.42 462.263C1645.57 448.939 1649.64 435.76 1653.5 422.727C1657.36 409.694 1660.78 397.608 1663.62 386.468H1729.81C1716.34 431.683 1701.99 473.548 1686.92 511.847C1671.85 550.217 1657 583.71 1642.36 612.324H1589.21Z" fill="#030140"/>
<path d="M1825.04 321.157C1825.04 332.879 1821.26 342.126 1813.68 348.825C1806.11 355.523 1797.16 358.945 1786.82 358.945C1776.48 358.945 1767.52 355.596 1759.95 348.825C1752.38 342.126 1748.59 332.879 1748.59 321.157C1748.59 309.435 1752.38 300.188 1759.95 293.489C1767.52 286.791 1776.48 283.369 1786.82 283.369C1797.16 283.369 1806.04 286.718 1813.68 293.489C1821.26 300.188 1825.04 309.435 1825.04 321.157ZM1819.07 612.324H1755.07V386.395H1819.07V612.324Z" fill="#030140"/>
<path d="M822.443 894.808L342.497 937.832C319.802 939.87 299.798 923.127 297.761 900.413L237.168 224.037C235.131 201.323 251.862 181.303 274.557 179.265L754.503 136.168C777.198 134.13 797.202 150.873 799.239 173.587L859.832 849.963C861.869 872.677 845.138 892.769 822.443 894.808Z" fill="#F24C27"/>
<path d="M542 451L535.975 383H377L383.098 451H542Z" fill="white"/>
<path d="M387 503L393.095 571H552L545.905 503H387Z" fill="white"/>
<path d="M722.883 623H397L403.117 691H729L722.883 623Z" fill="white"/>
</svg>
