<svg width="112" height="47" viewBox="0 0 112 47" fill="none" xmlns="http://www.w3.org/2000/svg">
<path d="M12.39 46.37C9.83 46.33 7.76 46.05 6.17 45.54C4.58 45.03 3.32 44.31 2.39 43.39C1.47 42.47 0.84 41.35 0.5 40.03C0.17 38.71 0 37.23 0 35.58V1.42L8.78999 0V33.8C8.78999 34.59 8.84999 35.29 8.96999 35.92C9.08999 36.55 9.30999 37.08 9.64999 37.51C9.97999 37.94 10.47 38.3 11.1 38.57C11.73 38.85 12.57 39.02 13.64 39.1L12.39 46.37Z" fill="#030140"/>
<path d="M28.25 5.78997C28.25 7.39997 27.73 8.66997 26.69 9.58997C25.65 10.51 24.42 10.98 23 10.98C21.58 10.98 20.35 10.52 19.31 9.58997C18.27 8.66997 17.75 7.39997 17.75 5.78997C17.75 4.17997 18.27 2.90997 19.31 1.98997C20.35 1.06997 21.58 0.599976 23 0.599976C24.42 0.599976 25.64 1.05997 26.69 1.98997C27.73 2.90997 28.25 4.17997 28.25 5.78997ZM27.43 45.78H18.64V14.75H27.43V45.78Z" fill="#030140"/>
<path d="M44.47 25.9C45.33 24.96 46.23 23.98 47.15 22.97C48.07 21.95 48.97 20.95 49.83 19.95C50.69 18.95 51.51 18.01 52.28 17.11C53.05 16.21 53.7 15.43 54.25 14.76H64.7C62.62 17.15 60.58 19.44 58.59 21.62C56.6 23.8 54.43 26.04 52.07 28.36C53.25 29.42 54.47 30.69 55.73 32.17C56.99 33.65 58.21 35.17 59.39 36.75C60.57 38.33 61.65 39.9 62.63 41.48C63.61 43.06 64.44 44.49 65.11 45.79H55C54.37 44.77 53.66 43.63 52.85 42.39C52.05 41.15 51.19 39.91 50.29 38.67C49.39 37.43 48.44 36.24 47.44 35.09C46.44 33.95 45.45 32.98 44.47 32.19V45.79H35.68V1.42L44.47 0V25.9V25.9Z" fill="#030140"/>
<path d="M79.5 45.78C77.49 41.85 75.44 37.25 73.37 31.98C71.3 26.71 69.33 20.97 67.48 14.76H76.8C77.19 16.29 77.66 17.96 78.19 19.74C78.72 21.53 79.28 23.34 79.85 25.17C80.42 27 80.99 28.78 81.57 30.51C82.14 32.24 82.71 33.81 83.26 35.23C83.77 33.81 84.33 32.24 84.92 30.51C85.51 28.78 86.09 27 86.67 25.17C87.24 23.34 87.8 21.53 88.33 19.74C88.86 17.95 89.33 16.29 89.72 14.76H98.81C96.96 20.97 94.99 26.72 92.92 31.98C90.85 37.25 88.81 41.85 86.8 45.78H79.5Z" fill="#030140"/>
<path d="M111.89 5.78997C111.89 7.39997 111.37 8.66997 110.33 9.58997C109.29 10.51 108.06 10.98 106.64 10.98C105.22 10.98 103.99 10.52 102.95 9.58997C101.91 8.66997 101.39 7.39997 101.39 5.78997C101.39 4.17997 101.91 2.90997 102.95 1.98997C103.99 1.06997 105.22 0.599976 106.64 0.599976C108.06 0.599976 109.28 1.05997 110.33 1.98997C111.37 2.90997 111.89 4.17997 111.89 5.78997ZM111.07 45.78H102.28V14.75H111.07V45.78Z" fill="#030140"/>
</svg>
