<svg width="194" height="90" fill="none"
    xmlns="http://www.w3.org/2000/svg">
    <path d="M93.9613 61.0523c-2.0556-.0297-3.7313-.2525-5.0124-.6611-1.281-.4085-2.2939-.9879-3.0387-1.7308-.7447-.7428-1.2512-1.6416-1.5193-2.7038-.2681-1.0548-.4022-2.2508-.4022-3.5804V24.9513l7.0754-1.1365v27.1426c0 .6314.0447 1.2034.1415 1.7085.0968.5051.2756.9285.5437 1.2776.2681.3492.6554.6314 1.1619.8543.5064.2228 1.1842.364 2.0407.4234l-.9906 5.8311zM106.734 28.4574c0 1.2925-.417 2.3176-1.259 3.053-.841.7428-1.832 1.1142-2.971 1.1142-1.14 0-2.13-.3714-2.9719-1.1142-.8416-.7428-1.2586-1.7605-1.2586-3.053s.417-2.3102 1.2586-3.053c.8419-.7428 1.8319-1.1142 2.9719-1.1142 1.139 0 2.13.3714 2.971 1.1142.842.7428 1.259 1.7605 1.259 3.053zm-.663 32.1195h-7.0751V35.6553h7.0751v24.9216zM119.798 44.6063c.692-.7502 1.415-1.5376 2.16-2.3547.744-.8171 1.459-1.6268 2.159-2.4291.693-.8022 1.356-1.5599 1.967-2.2878.618-.7206 1.147-1.352 1.586-1.8868h8.416c-1.676 1.9239-3.314 3.7587-4.915 5.5043-1.602 1.7456-3.352 3.5507-5.251 5.4151.953.8543 1.929 1.872 2.942 3.0605 1.013 1.1885 1.996 2.4141 2.942 3.6769.953 1.2628 1.817 2.533 2.614 3.7958.789 1.2628 1.46 2.4216 1.996 3.4616h-8.141c-.506-.8246-1.08-1.7308-1.728-2.7336-.648-.9954-1.333-1.9908-2.063-2.9936-.729-.9954-1.497-1.9536-2.301-2.8747-.804-.9211-1.601-1.6936-2.391-2.325v10.9194h-7.075V24.9513l7.075-1.1365v20.7915h.008zM148.002 60.5769c-1.623-3.157-3.269-6.8562-4.938-11.0829-1.668-4.234-3.247-8.8395-4.744-13.8312h7.508c.32 1.233.692 2.5701 1.124 4.0037.432 1.4411.872 2.8896 1.333 4.3604.462 1.4708.924 2.897 1.386 4.2861.461 1.389.916 2.6518 1.363 3.7883.409-1.1365.856-2.3993 1.333-3.7883.476-1.3891.946-2.8153 1.407-4.2861.462-1.4708.909-2.9193 1.334-4.3604.432-1.4336.804-2.7707 1.117-4.0037h7.321c-1.49 4.9917-3.076 9.6046-4.737 13.8312-1.668 4.2341-3.314 7.9259-4.93 11.0829h-5.877zM174.092 28.4574c0 1.2925-.417 2.3176-1.259 3.053-.841.7428-1.832 1.1142-2.971 1.1142-1.14 0-2.13-.3714-2.972-1.1142-.842-.7428-1.259-1.7605-1.259-3.053s.417-2.3102 1.259-3.053c.842-.7428 1.832-1.1142 2.972-1.1142 1.139 0 2.13.3714 2.971 1.1142.842.7428 1.259 1.7605 1.259 3.053zm-.663 32.1195h-7.075V35.6553h7.075v24.9216z" fill="#010326"/>
    <path d="M189.07 28.5466c0 .7205-.12 1.3667-.358 1.9313-.238.5645-.566 1.0399-.968 1.4336-.402.3937-.871.6909-1.408.8988-.528.208-1.087.312-1.668.312s-1.139-.104-1.668-.312c-.529-.2079-.998-.5051-1.4-.8988-.403-.3937-.73-.8691-.969-1.4336-.238-.5646-.357-1.2034-.357-1.9313 0-.7131.119-1.3594.357-1.9239.239-.5646.566-1.0474.969-1.4411.402-.3937.871-.6908 1.4-.8988.529-.208 1.087-.312 1.668-.312s1.14.104 1.668.312c.529.208.998.5051 1.408.8988.402.3937.73.8691.968 1.4411.238.5645.358 1.2108.358 1.9239zm-1.289 0c0-.5052-.074-.9657-.231-1.3743-.149-.4085-.365-.7651-.64-1.0622-.276-.2971-.603-.52-.983-.6834-.388-.1634-.805-.2377-1.259-.2377-.454 0-.871.0817-1.259.2377-.387.156-.715.3863-.99.6834-.276.2971-.484.6463-.641 1.0622-.149.416-.231.8691-.231 1.3743 0 .5051.075.9656.231 1.3742.149.416.365.7651.641 1.0622.275.2971.603.52.99.6834.38.1634.805.2377 1.259.2377.454 0 .871-.0817 1.259-.2377.38-.156.715-.3863.983-.6834.275-.2971.484-.6462.64-1.0622.157-.416.231-.8691.231-1.3742zm-2.338 2.1393c-.142-.3194-.269-.6017-.365-.8394-.097-.2377-.216-.4531-.343-.6537h-.506v1.4857H183v-4.3158c.283-.0669.558-.1189.804-.1486.246-.0297.462-.0446.655-.0446 1.356 0 2.034.5126 2.034 1.5302 0 .52-.231.9063-.685 1.1514.089.1412.171.2823.245.4086.075.1337.142.2674.216.4011.075.1411.142.2897.216.4531.075.1634.157.3491.246.5646h-1.288v.0074zm-1.214-2.4662h.23c.269 0 .47-.0371.604-.104.134-.0743.201-.208.201-.4085 0-.1709-.06-.2823-.179-.3566-.119-.0668-.29-.104-.521-.104-.06 0-.119 0-.186.0075-.06.0074-.12.0074-.157.0222v.9434h.008z" fill="#fff"/>
    <path d="M64.3787 81.4279l-49.1405 4.39c-2.3237.208-4.3718-1.5005-4.5804-3.8181L4.46128 12.9845c-.20854-2.3176 1.50445-4.36036 3.82816-4.56835L57.43 4.02609c2.3237-.20799 4.3718 1.50049 4.5803 3.81809l6.204 69.01532c.2011 2.3102-1.5119 4.3604-3.8356 4.5684z" fill="rgb(252, 61, 19)"/>
    <path d="M35.7196 36.1233l-.6256-6.9528H18.7908l.6181 6.9528h16.3107zM19.826 41.4419l.6256 6.9528h16.3032l-.6256-6.9528H19.826zM54.1902 53.7207H20.8614l.6256 6.9454h33.3288l-.6256-6.9454z" fill="#fff"/>
</svg>
