<svg width="26" height="26" fill="none"
    xmlns="http://www.w3.org/2000/svg">
    <g clip-path="url(#clip0)">
        <path d="M20.3125 9.75H19.5V6.5C19.5 2.91525 16.5848 0 13 0 9.41525 0 6.5 2.91525 6.5 6.5v3.25h-.8125c-1.34333 0-2.4375 1.0931-2.4375 2.4375v11.375C3.25 24.9069 4.34417 26 5.6875 26h14.625c1.3433 0 2.4375-1.0931 2.4375-2.4375v-11.375c0-1.3444-1.0942-2.4375-2.4375-2.4375zM8.66667 6.5c0-2.38983 1.94353-4.33333 4.33333-4.33333S17.3333 4.11017 17.3333 6.5v3.25H8.66667V6.5zm5.41663 11.6155v2.4678c0 .598-.4842 1.0834-1.0833 1.0834s-1.0833-.4854-1.0833-1.0834v-2.4678c-.6446-.3759-1.0834-1.0671-1.0834-1.8655 0-1.1949.9718-2.1667 2.1667-2.1667s2.1667.9718 2.1667 2.1667c0 .7984-.4388 1.4896-1.0834 1.8655z" fill="#010326"/>
    </g>
    <defs>
        <clipPath id="clip0">
            <path fill="#fff" d="M0 0h26v26H0z"/>
        </clipPath>
    </defs>
</svg>